<svg id="Layer_1" data-name="Layer 1" xmlns="http://www.w3.org/2000/svg" viewBox="0 0 172.74 172.74"><defs><style>.cls-1-red{fill:#ef4052;}.cls-2-red{fill:#fff;}.cls-3-red{opacity:0.4;}</style></defs><title>ICON JSB SCAN</title><circle class="cls-1-red" cx="86.37" cy="86.37" r="48.44"/><path class="cls-2-red" d="M75.82,76.2a14.61,14.61,0,0,1,17.76-2.75l.27.15,4.55-4.82-.4-.26A21.14,21.14,0,0,0,69.47,98.81l.29.38,4.54-4.83-.16-.26A14.61,14.61,0,0,1,75.82,76.2Z"/><path class="cls-2-red" d="M103.45,73.65l-.28-.38L98.62,78.1l.17.26A14.63,14.63,0,0,1,79.34,99l-.27-.15-4.54,4.82.4.26a21.14,21.14,0,0,0,28.52-30.29Z"/><circle class="cls-2-red" cx="106.63" cy="64.83" r="4.91"/><circle class="cls-2-red" cx="66.11" cy="107.91" r="4.91"/><rect class="cls-1-red" x="10.52" y="77.65" width="1.92" height="7.41" transform="translate(-70.46 87.44) rotate(-86.21)"/><rect class="cls-1-red" x="10.97" y="72.95" width="1.92" height="7.41" transform="translate(-65.62 78.67) rotate(-82.64)"/><rect class="cls-1-red" x="11.73" y="68.3" width="1.92" height="7.41" transform="translate(-60.41 70.76) rotate(-79.04)"/><rect class="cls-1-red" x="12.77" y="63.69" width="1.92" height="7.41" transform="matrix(0.25, -0.97, 0.97, 0.25, -54.96, 63.71)"/><rect class="cls-1-red" x="11.84" y="56.04" width="1.92" height="12.18" transform="matrix(0.31, -0.95, 0.95, 0.31, -50.22, 54.86)"/><rect class="cls-1-red" x="15.72" y="54.74" width="1.92" height="7.41" transform="translate(-43.77 52.18) rotate(-68.16)"/><rect class="cls-1-red" x="17.61" y="50.41" width="1.92" height="7.41" transform="translate(-38.28 47.61) rotate(-64.53)"/><rect class="cls-1-red" x="19.77" y="46.22" width="1.92" height="7.41" transform="translate(-32.98 43.77) rotate(-60.91)"/><rect class="cls-1-red" x="22.2" y="42.17" width="1.92" height="7.41" transform="translate(-27.96 40.58) rotate(-57.3)"/><rect class="cls-1-red" x="22.94" y="34.49" width="1.92" height="12.18" transform="translate(-22.95 35.82) rotate(-53.71)"/><rect class="cls-1-red" x="27.78" y="34.57" width="1.92" height="7.41" transform="translate(-19.06 35.78) rotate(-50.12)"/><rect class="cls-1-red" x="30.92" y="31.04" width="1.92" height="7.41" transform="translate(-15.27 33.98) rotate(-46.53)"/><rect class="cls-1-red" x="34.27" y="27.72" width="1.92" height="7.41" transform="translate(-11.97 32.43) rotate(-42.95)"/><rect class="cls-1-red" x="37.82" y="24.62" width="1.92" height="7.41" transform="translate(-9.16 31.03) rotate(-39.37)"/><rect class="cls-1-red" x="40.17" y="17.42" width="1.92" height="12.18" transform="translate(-5.98 28.49) rotate(-35.79)"/><rect class="cls-1-red" x="45.47" y="19.1" width="1.92" height="7.41" transform="translate(-5.01 28.24) rotate(-32.19)"/><rect class="cls-1-red" x="49.55" y="16.71" width="1.92" height="7.41" transform="translate(-3.61 26.66) rotate(-28.59)"/><rect class="cls-1-red" x="53.76" y="14.59" width="1.92" height="7.41" transform="translate(-2.61 24.82) rotate(-24.98)"/><rect class="cls-1-red" x="58.09" y="12.73" width="1.92" height="7.41" transform="matrix(0.93, -0.36, 0.36, 0.93, -1.93, 22.64)"/><rect class="cls-1-red" x="61.82" y="6.5" width="1.92" height="12.18" transform="translate(-0.85 19.72) rotate(-17.73)"/><rect class="cls-1-red" x="67.08" y="9.85" width="1.92" height="7.41" transform="translate(-1.25 16.98) rotate(-14.1)"/><rect class="cls-1-red" x="71.69" y="8.85" width="1.92" height="7.41" transform="translate(-1.07 13.41) rotate(-10.47)"/><rect class="cls-1-red" x="76.35" y="8.14" width="1.92" height="7.41" transform="translate(-0.86 9.32) rotate(-6.86)"/><rect class="cls-1-red" x="81.05" y="7.73" width="1.92" height="7.41" transform="matrix(1, -0.06, 0.06, 1, -0.52, 4.69)"/><rect class="cls-1-red" x="80.65" y="7.97" width="12.18" height="1.92" transform="translate(77.37 95.62) rotate(-89.7)"/><rect class="cls-1-red" x="87.74" y="10.52" width="7.41" height="1.92" transform="translate(73.87 101.96) rotate(-86.16)"/><rect class="cls-1-red" x="92.44" y="10.98" width="7.41" height="1.92" transform="translate(71.9 105.74) rotate(-82.59)"/><rect class="cls-1-red" x="97.1" y="11.74" width="7.41" height="1.92" transform="translate(69.08 109.22) rotate(-78.99)"/><rect class="cls-1-red" x="101.7" y="12.79" width="7.41" height="1.92" transform="translate(65.47 112.26) rotate(-75.37)"/><rect class="cls-1-red" x="104.59" y="11.86" width="12.18" height="1.92" transform="translate(63.81 113.9) rotate(-71.73)"/><rect class="cls-1-red" x="110.65" y="15.74" width="7.41" height="1.92" transform="translate(56.22 116.58) rotate(-68.1)"/><rect class="cls-1-red" x="114.97" y="17.64" width="7.41" height="1.92" transform="translate(50.76 117.68) rotate(-64.48)"/><rect class="cls-1-red" x="119.16" y="19.81" width="7.41" height="1.92" transform="translate(44.9 117.97) rotate(-60.86)"/><rect class="cls-1-red" x="123.21" y="22.23" width="7.41" height="1.92" transform="translate(38.76 117.39) rotate(-57.25)"/><rect class="cls-1-red" x="126.13" y="22.99" width="12.18" height="1.92" transform="translate(34.57 116.25) rotate(-53.66)"/><rect class="cls-1-red" x="130.81" y="27.82" width="7.41" height="1.92" transform="translate(26.1 113.45) rotate(-50.07)"/><rect class="cls-1-red" x="134.33" y="30.96" width="7.41" height="1.92" transform="translate(19.84 110.04) rotate(-46.48)"/><rect class="cls-1-red" x="137.65" y="34.32" width="7.41" height="1.92" transform="translate(13.8 105.67) rotate(-42.9)"/><rect class="cls-1-red" x="140.76" y="37.87" width="7.41" height="1.92" transform="translate(8.1 100.33) rotate(-39.32)"/><rect class="cls-1-red" x="143.18" y="40.22" width="12.18" height="1.92" transform="translate(4.05 94.94) rotate(-35.74)"/><rect class="cls-1-red" x="146.26" y="45.53" width="7.41" height="1.92" transform="translate(-1.75 86.92) rotate(-32.14)"/><rect class="cls-1-red" x="148.65" y="49.6" width="7.41" height="1.92" transform="translate(-5.64 78.94) rotate(-28.54)"/><rect class="cls-1-red" x="150.77" y="53.82" width="7.41" height="1.92" transform="translate(-8.7 70.22) rotate(-24.93)"/><rect class="cls-1-red" x="152.62" y="58.16" width="7.41" height="1.92" transform="translate(-10.79 60.85) rotate(-21.31)"/><rect class="cls-1-red" x="154.09" y="61.88" width="12.18" height="1.92" transform="translate(-11.52 51.62) rotate(-17.68)"/><rect class="cls-1-red" x="155.49" y="67.14" width="7.41" height="1.92" transform="translate(-11.77 40.69) rotate(-14.05)"/><rect class="cls-1-red" x="156.49" y="71.75" width="7.41" height="1.92" transform="translate(-10.51 30.18) rotate(-10.42)"/><rect class="cls-1-red" x="157.19" y="76.42" width="7.41" height="1.92" transform="translate(-8.04 19.62) rotate(-6.81)"/><rect class="cls-1-red" x="157.61" y="81.12" width="7.41" height="1.92" transform="translate(-4.34 9.16) rotate(-3.21)"/><rect class="cls-1-red" x="162.85" y="80.72" width="1.92" height="12.18" transform="translate(76.02 250.1) rotate(-89.65)"/><rect class="cls-1-red" x="160.3" y="87.81" width="1.92" height="7.41" transform="translate(59.02 246.2) rotate(-86.11)"/><rect class="cls-1-red" x="159.83" y="92.5" width="1.92" height="7.41" transform="translate(44.52 243.15) rotate(-82.54)"/><rect class="cls-1-red" x="159.07" y="97.16" width="1.92" height="7.41" transform="translate(30.33 238.57) rotate(-78.94)"/><rect class="cls-1-red" x="158.02" y="101.76" width="1.92" height="7.41" transform="translate(16.66 232.52) rotate(-75.32)"/><rect class="cls-1-red" x="158.94" y="104.65" width="1.92" height="12.18" transform="translate(4.52 227.74) rotate(-71.68)"/><rect class="cls-1-red" x="155.06" y="110.71" width="1.92" height="7.41" transform="translate(-8.42 216.37) rotate(-68.05)"/><rect class="cls-1-red" x="153.16" y="115.03" width="1.92" height="7.41" transform="translate(-19.51 206.51) rotate(-64.43)"/><rect class="cls-1-red" x="150.99" y="119.22" width="1.92" height="7.41" transform="translate(-29.47 195.63) rotate(-60.81)"/><rect class="cls-1-red" x="148.56" y="123.27" width="1.92" height="7.41" transform="translate(-38.2 183.88) rotate(-57.2)"/><rect class="cls-1-red" x="147.8" y="126.18" width="1.92" height="12.18" transform="translate(-45.98 173.53) rotate(-53.61)"/><rect class="cls-1-red" x="142.96" y="130.86" width="1.92" height="7.41" transform="translate(-51.67 158.37) rotate(-50.02)"/><rect class="cls-1-red" x="139.82" y="134.38" width="1.92" height="7.41" transform="matrix(0.69, -0.72, 0.72, 0.69, -56.3, 144.92)"/><rect class="cls-1-red" x="136.46" y="137.69" width="1.92" height="7.41" transform="translate(-59.49 131.2) rotate(-42.85)"/><rect class="cls-1-red" x="132.9" y="140.8" width="1.92" height="7.41" transform="translate(-61.24 117.37) rotate(-39.27)"/><rect class="cls-1-red" x="130.54" y="143.22" width="1.92" height="12.18" transform="translate(-62.41 104.75) rotate(-35.69)"/><rect class="cls-1-red" x="125.24" y="146.3" width="1.92" height="7.41" transform="translate(-60.41 89.97) rotate(-32.09)"/><rect class="cls-1-red" x="121.16" y="148.68" width="1.92" height="7.41" transform="translate(-57.91 76.72) rotate(-28.49)"/><rect class="cls-1-red" x="116.95" y="150.8" width="1.92" height="7.41" transform="translate(-54.06 63.95) rotate(-24.88)"/><rect class="cls-1-red" x="112.61" y="152.65" width="1.92" height="7.41" transform="translate(-48.97 51.82) rotate(-21.26)"/><rect class="cls-1-red" x="108.88" y="154.11" width="1.92" height="12.18" transform="translate(-43.36 40.79) rotate(-17.63)"/><rect class="cls-1-red" x="103.62" y="155.5" width="1.92" height="7.41" transform="translate(-35.41 30.03) rotate(-14)"/><rect class="cls-1-red" x="99.01" y="156.5" width="1.92" height="7.41" transform="translate(-27.21 20.62) rotate(-10.37)"/><rect class="cls-1-red" x="94.34" y="157.2" width="1.92" height="7.41" transform="translate(-18.27 12.33) rotate(-6.76)"/><rect class="cls-1-red" x="89.64" y="157.61" width="1.92" height="7.41" transform="translate(-8.77 5.25) rotate(-3.17)"/><rect class="cls-1-red" x="79.77" y="162.85" width="12.18" height="1.92" transform="matrix(0.01, -1, 1, 0.01, -78.54, 248.54)"/><rect class="cls-1-red" x="77.46" y="160.29" width="7.41" height="1.92" transform="translate(-85.28 231.16) rotate(-86.07)"/><rect class="cls-1-red" x="72.76" y="159.82" width="7.41" height="1.92" transform="translate(-92.93 215.58) rotate(-82.49)"/><rect class="cls-1-red" x="68.1" y="159.06" width="7.41" height="1.92" transform="translate(-99.05 199.64) rotate(-78.89)"/><rect class="cls-1-red" x="63.5" y="158" width="7.41" height="1.92" transform="matrix(0.25, -0.97, 0.97, 0.25, -103.62, 183.54)"/><rect class="cls-1-red" x="55.85" y="158.92" width="12.18" height="1.92" transform="translate(-109.31 168.3) rotate(-71.64)"/><rect class="cls-1-red" x="54.55" y="155.03" width="7.41" height="1.92" transform="translate(-108.2 151.58) rotate(-68)"/><rect class="cls-1-red" x="50.24" y="153.13" width="7.41" height="1.92" transform="translate(-108.32 136.1) rotate(-64.38)"/><rect class="cls-1-red" x="46.05" y="150.95" width="7.41" height="1.92" transform="translate(-107.1 121.13) rotate(-60.76)"/><rect class="cls-1-red" x="42.01" y="148.52" width="7.41" height="1.92" transform="translate(-104.66 106.81) rotate(-57.15)"/><rect class="cls-1-red" x="34.33" y="147.76" width="12.18" height="1.92" transform="translate(-103.22 92.89) rotate(-53.56)"/><rect class="cls-1-red" x="34.42" y="142.92" width="7.41" height="1.92" transform="translate(-96.56 80.52) rotate(-49.97)"/><rect class="cls-1-red" x="30.9" y="139.77" width="7.41" height="1.92" transform="translate(-91.15 68.71) rotate(-46.38)"/><rect class="cls-1-red" x="27.59" y="136.41" width="7.41" height="1.92" transform="translate(-85.01 57.85) rotate(-42.8)"/><rect class="cls-1-red" x="24.49" y="132.85" width="7.41" height="1.92" transform="translate(-78.26 47.98) rotate(-39.22)"/><rect class="cls-1-red" x="17.3" y="130.49" width="12.18" height="1.92" transform="translate(-72.21 38.25) rotate(-35.64)"/><rect class="cls-1-red" x="19" y="125.18" width="7.41" height="1.92" transform="matrix(0.85, -0.53, 0.53, 0.85, -63.47, 31.26)"/><rect class="cls-1-red" x="16.61" y="121.11" width="7.41" height="1.92" transform="translate(-55.68 24.41) rotate(-28.44)"/><rect class="cls-1-red" x="14.5" y="116.89" width="7.41" height="1.92" transform="translate(-47.8 18.54) rotate(-24.83)"/><rect class="cls-1-red" x="12.66" y="112.55" width="7.41" height="1.92" transform="translate(-39.95 13.61) rotate(-21.21)"/><rect class="cls-1-red" x="6.44" y="108.82" width="12.18" height="1.92" transform="translate(-32.57 8.91) rotate(-17.58)"/><rect class="cls-1-red" x="9.81" y="103.55" width="7.41" height="1.92" transform="translate(-24.79 6.34) rotate(-13.95)"/><rect class="cls-1-red" x="8.82" y="98.94" width="7.41" height="1.92" transform="translate(-17.7 3.86) rotate(-10.32)"/><rect class="cls-1-red" x="8.12" y="94.28" width="7.41" height="1.92" transform="translate(-11.05 2.03) rotate(-6.71)"/><rect class="cls-1-red" x="7.71" y="89.58" width="7.41" height="1.92" transform="translate(-4.9 0.75) rotate(-3.12)"/><rect class="cls-1-red" x="7.97" y="79.71" width="1.92" height="12.18" transform="translate(-76.93 94.06) rotate(-89.56)"/><g class="cls-3-red"><path class="cls-1-red" d="M150.64,85.62v-.08a64,64,0,0,0-18.22-44l-.6-.62-.45-.44A64.1,64.1,0,0,0,87.42,22.1H85.93A64.1,64.1,0,0,0,41.69,40.16c-.25.26-.51.51-.77.76l-.29.3a64.1,64.1,0,0,0-18.53,44v1.49a64,64,0,0,0,18.53,44.77l.29.3.77.76a64.11,64.11,0,0,0,44.08,18.06h1.49a64.14,64.14,0,0,0,44.11-18.37l.45-.45.6-.61A64.09,64.09,0,0,0,150.64,87V87c0-.2,0-.39,0-.59S150.65,85.87,150.64,85.62Zm-6.82,23.63c-.16.4-.32.79-.49,1.18l-.09.2a61.47,61.47,0,0,1-12.56,18.84l-.05.06-.55.55-.4.4-.06.05a61.34,61.34,0,0,1-18.79,12.63l-.4.17-1,.41a61.36,61.36,0,0,1-22.2,4.44H85.76a61.2,61.2,0,0,1-22.07-4.29l-1.38-.56h0a61.61,61.61,0,0,1-18.87-12.5l-.06-.05c-.24-.23-.48-.46-.71-.7l-.25-.25,0-.05A61.65,61.65,0,0,1,29.67,111c-.09-.2-.18-.4-.26-.6s-.21-.52-.32-.78a61.2,61.2,0,0,1-4.53-22.88v-1.5a61.6,61.6,0,0,1,4.53-22.18c.1-.26.21-.52.32-.78s.17-.4.26-.6A61.53,61.53,0,0,1,42.36,43l0-.05.25-.25c.23-.24.47-.47.71-.7l.05-.05a61.7,61.7,0,0,1,18.89-12.5h0l1.38-.56a61.41,61.41,0,0,1,22.22-4.3h1.5a61.2,61.2,0,0,1,22,4.45l1,.4c.14.06.27.11.4.18a61.31,61.31,0,0,1,18.79,12.62l.06,0,.4.4c.19.18.37.37.55.56a.12.12,0,0,1,.05.05,61.47,61.47,0,0,1,12.56,18.84l.09.2c.17.39.33.78.49,1.18a61.42,61.42,0,0,1,4.36,22.05v.08c0,.25,0,.5,0,.75s0,.39,0,.59V87A61.59,61.59,0,0,1,143.82,109.25Z"/></g><g class="cls-3-red"><path class="cls-1-red" d="M86.37,172.74A86.34,86.34,0,0,1,25.3,25.3,86.37,86.37,0,1,1,120,166,85.73,85.73,0,0,1,86.37,172.74Zm0-169.44A83.09,83.09,0,0,0,54,162.91,83.09,83.09,0,0,0,118.7,9.83,82.53,82.53,0,0,0,86.37,3.3Z"/></g><path class="cls-1-red" d="M148.18,85.54H143a56.19,56.19,0,0,0-4-20.07l4.82-2,2.29-.94-.64-1.39-2.23,1-4.81,2A57.11,57.11,0,0,0,127,46.94l3.68-3.67,1.74-1.73-.6-.62-.45-.44-1.75,1.73-3.68,3.67a56.94,56.94,0,0,0-17.11-11.49l2-4.8.94-2.24-1.37-.6-1,2.26-2,4.8a56.07,56.07,0,0,0-20.06-4l0-5.21V22.1H85.93l0,2.45,0,5.21a56.34,56.34,0,0,0-20.23,3.91l-2-4.82-.92-2.24-1.41.55,1,2.25,2,4.83a57.17,57.17,0,0,0-17.2,11.37l-3.66-3.7-1.73-1.75c-.25.26-.51.51-.77.76l-.29.3L42.36,43,46,46.66A56,56,0,0,0,34.46,63.73l-4.79-2-2.27-1-.54,1.36,2.23,1,4.79,2A55.73,55.73,0,0,0,29.77,85.3l-5.21,0H22.1v1.49l2.46,0,5.2,0a55.17,55.17,0,0,0,1.06,10.61,55.83,55.83,0,0,0,3.06,10.22l-4.79,2-2.29.91.61,1.42,2.26-1,4.79-2a56.51,56.51,0,0,0,5,9,57.14,57.14,0,0,0,6.6,8l-3.66,3.7-1.73,1.74.29.3.77.76,1.74-1.75,3.65-3.7a57.17,57.17,0,0,0,17.2,11.37l-2,4.83-.95,2.28,1.46.55.88-2.27,2-4.82A56.28,56.28,0,0,0,85.75,143v7.66h1.49V143a56.19,56.19,0,0,0,20.21-4l2,4.81,1.07,2.28,1.27-.62-1-2.24-2-4.8a57,57,0,0,0,17.11-11.5l3.68,3.67,1.75,1.74,1-1.06-1.74-1.74L127,125.8a57.19,57.19,0,0,0,11.43-17.15l4.81,2,.88.37.57-1.39-.87-.36-4.82-2A56.05,56.05,0,0,0,143,87h7.66v-1.5Zm-10.85,21.89a55.3,55.3,0,0,1-29.76,29.84,55.3,55.3,0,0,1-42.11.11,55.18,55.18,0,0,1-29.93-29.66,54.26,54.26,0,0,1-4.28-21v-.64a54.3,54.3,0,0,1,4.28-21,55.22,55.22,0,0,1,5.13-9.48,55.48,55.48,0,0,1,24.8-20.18,54.82,54.82,0,0,1,21-4.11h.12a54.26,54.26,0,0,1,21,4.23,55.16,55.16,0,0,1,29.76,72Z"/></svg>