<svg id="Layer_1" data-name="Layer 1" xmlns="http://www.w3.org/2000/svg" viewBox="0 0 172.51 172.47"><defs><style>.cls-1-root{fill:#ef4052;}.cls-2-root{fill:#fff;}</style></defs><title>ICON JSB SCAN</title><path class="cls-1-root" d="M172.51,86.41A86.26,86.26,0,1,1,86.32,0,86.24,86.24,0,0,1,172.51,86.41ZM86.28,170.68a84.47,84.47,0,0,0,0-168.93C40.73,1.74,1.89,38.6,1.83,86.16A84.32,84.32,0,0,0,86.28,170.68Z"/><circle class="cls-1-root" cx="86.25" cy="86.23" r="72.65"/><path class="cls-2-root" d="M70.43,71a21.91,21.91,0,0,1,26.64-4.13l.41.23,6.82-7.24-.6-.39a31.7,31.7,0,0,0-42.79,45.43l.43.57,6.82-7.24-.25-.39A21.9,21.9,0,0,1,70.43,71Z"/><path class="cls-2-root" d="M111.87,67.16l-.42-.58-6.82,7.24.25.4a21.94,21.94,0,0,1-29.16,31l-.41-.23-6.82,7.24.6.39a31.7,31.7,0,0,0,42.78-45.43Z"/><circle class="cls-2-root" cx="116.64" cy="53.93" r="7.36"/><circle class="cls-2-root" cx="55.86" cy="118.53" r="7.36"/></svg>