<svg id="Layer_1" data-name="Layer 1" xmlns="http://www.w3.org/2000/svg" viewBox="0 0 172.74 172.74"><defs><style>.cls-1-white,.cls-3-white{fill:#fff;}.cls-2-white,.cls-3-white{opacity:0.5;}</style></defs><title>ICON JSB SCAN</title><path class="cls-1-white" d="M86.37,40.59a45.79,45.79,0,1,0,45.78,45.78A45.78,45.78,0,0,0,86.37,40.59ZM70.59,109.91a4.64,4.64,0,1,1-.19-6.56A4.64,4.64,0,0,1,70.59,109.91Zm.08-11.42-.27-.36a20,20,0,0,1,27-28.64l.38.25-4.3,4.56-.25-.14A13.83,13.83,0,0,0,74.81,93.68l.15.25ZM101,99.93a19.95,19.95,0,0,1-25.46,3l-.37-.24,4.29-4.57.26.14A13.82,13.82,0,0,0,98.11,78.79L98,78.55l4.3-4.56.27.36A20,20,0,0,1,101,99.93Zm7.89-30.74a4.64,4.64,0,1,1-.2-6.55A4.62,4.62,0,0,1,108.9,69.19Z"/><g class="cls-2-white"><rect class="cls-1-white" x="14" y="78.56" width="2.27" height="8.79" transform="translate(-68.44 94.16) rotate(-87.3)"/><rect class="cls-1-white" x="14.34" y="74.09" width="2.27" height="8.79" transform="translate(-64.23 85.3) rotate(-83.73)"/><rect class="cls-1-white" x="14.97" y="69.66" width="2.27" height="8.79" transform="translate(-59.61 77.22) rotate(-80.12)"/><rect class="cls-1-white" x="15.88" y="65.27" width="2.27" height="8.79" transform="translate(-54.7 69.96) rotate(-76.51)"/><rect class="cls-1-white" x="14.36" y="57.29" width="2.27" height="14.44" transform="translate(-50.72 60.33) rotate(-72.88)"/><rect class="cls-1-white" x="18.52" y="56.72" width="2.27" height="8.79" transform="translate(-44.46 57.84) rotate(-69.25)"/><rect class="cls-1-white" x="20.23" y="52.58" width="2.27" height="8.79" transform="translate(-39.35 52.93) rotate(-65.63)"/><rect class="cls-1-white" x="22.21" y="48.56" width="2.27" height="8.79" transform="translate(-34.37 48.72) rotate(-62.02)"/><rect class="cls-1-white" x="24.44" y="44.67" width="2.27" height="8.79" transform="translate(-29.62 45.15) rotate(-58.41)"/><rect class="cls-1-white" x="24.59" y="36.48" width="2.27" height="14.44" transform="translate(-24.81 39.55) rotate(-54.82)"/><rect class="cls-1-white" x="29.59" y="37.35" width="2.27" height="8.79" transform="translate(-21.06 39.57) rotate(-51.23)"/><rect class="cls-1-white" x="32.51" y="33.95" width="2.27" height="8.79" transform="translate(-17.36 37.38) rotate(-47.65)"/><rect class="cls-1-white" x="35.63" y="30.73" width="2.27" height="8.79" transform="translate(-14.08 35.46) rotate(-44.08)"/><rect class="cls-1-white" x="38.94" y="27.72" width="2.27" height="8.79" transform="translate(-11.25 33.72) rotate(-40.5)"/><rect class="cls-1-white" x="40.74" y="19.83" width="2.27" height="14.44" transform="translate(-7.85 30.58) rotate(-36.92)"/><rect class="cls-1-white" x="46.1" y="22.34" width="2.27" height="8.79" transform="translate(-6.92 30.35) rotate(-33.33)"/><rect class="cls-1-white" x="49.92" y="20" width="2.27" height="8.79" transform="translate(-5.38 28.53) rotate(-29.73)"/><rect class="cls-1-white" x="53.88" y="17.9" width="2.27" height="8.79" transform="translate(-4.2 26.5) rotate(-26.12)"/><rect class="cls-1-white" x="57.96" y="16.05" width="2.27" height="8.79" transform="translate(-3.33 24.17) rotate(-22.5)"/><rect class="cls-1-white" x="61.24" y="8.98" width="2.27" height="14.44" transform="matrix(0.95, -0.32, 0.32, 0.95, -1.89, 21.05)"/><rect class="cls-1-white" x="66.43" y="13.16" width="2.27" height="8.79" transform="translate(-2.24 18.39) rotate(-15.25)"/><rect class="cls-1-white" x="70.79" y="12.12" width="2.27" height="8.79" transform="translate(-1.85 14.83) rotate(-11.62)"/><rect class="cls-1-white" x="75.2" y="11.36" width="2.27" height="8.79" transform="translate(-1.45 10.79) rotate(-8.01)"/><rect class="cls-1-white" x="79.65" y="10.87" width="2.27" height="8.79" transform="translate(-0.94 6.28) rotate(-4.42)"/><rect class="cls-1-white" x="84.09" y="5.02" width="2.27" height="14.44" transform="translate(-0.18 1.29) rotate(-0.87)"/><rect class="cls-1-white" x="85.36" y="13.99" width="8.79" height="2.27" transform="translate(70.46 104.08) rotate(-87.33)"/><rect class="cls-1-white" x="89.82" y="14.34" width="8.79" height="2.27" transform="translate(68.59 107.45) rotate(-83.76)"/><rect class="cls-1-white" x="94.26" y="14.97" width="8.79" height="2.27" transform="translate(65.92 110.55) rotate(-80.16)"/><rect class="cls-1-white" x="98.64" y="15.87" width="8.79" height="2.27" transform="translate(62.51 113.26) rotate(-76.54)"/><rect class="cls-1-white" x="100.97" y="14.35" width="14.44" height="2.27" transform="translate(61.6 114.35) rotate(-72.91)"/><rect class="cls-1-white" x="107.2" y="18.5" width="8.79" height="2.27" transform="matrix(0.35, -0.94, 0.94, 0.35, 53.75, 117.07)"/><rect class="cls-1-white" x="111.34" y="20.21" width="8.79" height="2.27" transform="translate(48.58 118) rotate(-65.66)"/><rect class="cls-1-white" x="115.36" y="22.19" width="8.79" height="2.27" transform="translate(43.01 118.18) rotate(-62.05)"/><rect class="cls-1-white" x="119.25" y="24.41" width="8.79" height="2.27" transform="translate(37.16 117.54) rotate(-58.44)"/><rect class="cls-1-white" x="121.79" y="24.57" width="14.44" height="2.27" transform="translate(33.72 116.39) rotate(-54.85)"/><rect class="cls-1-white" x="126.57" y="29.57" width="8.79" height="2.27" transform="translate(25.06 113.65) rotate(-51.26)"/><rect class="cls-1-white" x="129.98" y="32.48" width="8.79" height="2.27" transform="translate(19.05 110.34) rotate(-47.68)"/><rect class="cls-1-white" x="133.19" y="35.6" width="8.79" height="2.27" transform="translate(13.23 106.12) rotate(-44.11)"/><rect class="cls-1-white" x="136.21" y="38.91" width="8.79" height="2.27" transform="translate(7.71 100.98) rotate(-40.53)"/><rect class="cls-1-white" x="138.45" y="40.71" width="14.44" height="2.27" transform="translate(4.1 95.96) rotate(-36.95)"/><rect class="cls-1-white" x="141.59" y="46.07" width="8.79" height="2.27" transform="translate(-1.91 88.05) rotate(-33.36)"/><rect class="cls-1-white" x="143.94" y="49.89" width="8.79" height="2.27" transform="translate(-5.76 80.35) rotate(-29.76)"/><rect class="cls-1-white" x="146.04" y="53.84" width="8.79" height="2.27" transform="translate(-8.83 71.92) rotate(-26.15)"/><rect class="cls-1-white" x="147.88" y="57.92" width="8.79" height="2.27" transform="translate(-11.01 62.86) rotate(-22.53)"/><rect class="cls-1-white" x="149.31" y="61.2" width="14.44" height="2.27" transform="translate(-11.75 54.08) rotate(-18.91)"/><rect class="cls-1-white" x="150.78" y="66.39" width="8.79" height="2.27" transform="translate(-12.31 43.28) rotate(-15.28)"/><rect class="cls-1-white" x="151.83" y="70.75" width="8.79" height="2.27" transform="translate(-11.3 33.04) rotate(-11.65)"/><rect class="cls-1-white" x="152.59" y="75.16" width="8.79" height="2.27" transform="translate(-9.13 22.72) rotate(-8.04)"/><rect class="cls-1-white" x="153.08" y="79.61" width="8.79" height="2.27" transform="translate(-5.8 12.48) rotate(-4.45)"/><rect class="cls-1-white" x="153.29" y="84.05" width="14.44" height="2.27" transform="translate(-1.32 2.53) rotate(-0.9)"/><rect class="cls-1-white" x="156.48" y="85.32" width="2.27" height="8.79" transform="translate(60.74 243.03) rotate(-87.36)"/><rect class="cls-1-white" x="156.13" y="89.78" width="2.27" height="8.79" transform="translate(46.63 240.33) rotate(-83.79)"/><rect class="cls-1-white" x="155.51" y="94.22" width="2.27" height="8.79" transform="translate(32.78 236.16) rotate(-80.19)"/><rect class="cls-1-white" x="154.6" y="98.61" width="2.27" height="8.79" transform="translate(19.38 230.56) rotate(-76.57)"/><rect class="cls-1-white" x="156.13" y="100.93" width="2.27" height="14.44" transform="translate(7.74 226.77) rotate(-72.94)"/><rect class="cls-1-white" x="151.98" y="107.16" width="2.27" height="8.79" transform="translate(-5.34 215.4) rotate(-69.31)"/><rect class="cls-1-white" x="150.27" y="111.3" width="2.27" height="8.79" transform="translate(-16.36 206.06) rotate(-65.69)"/><rect class="cls-1-white" x="148.29" y="115.32" width="2.27" height="8.79" transform="translate(-26.32 195.69) rotate(-62.08)"/><rect class="cls-1-white" x="146.07" y="119.21" width="2.27" height="8.79" transform="translate(-35.13 184.46) rotate(-58.47)"/><rect class="cls-1-white" x="145.92" y="121.76" width="2.27" height="14.44" transform="translate(-43.04 175.07) rotate(-54.88)"/><rect class="cls-1-white" x="140.92" y="126.54" width="2.27" height="8.79" transform="translate(-48.95 159.92) rotate(-51.3)"/><rect class="cls-1-white" x="138.01" y="129.95" width="2.27" height="8.79" transform="translate(-53.86 146.9) rotate(-47.72)"/><rect class="cls-1-white" x="134.89" y="133.16" width="2.27" height="8.79" transform="translate(-57.39 133.57) rotate(-44.14)"/><rect class="cls-1-white" x="131.58" y="136.18" width="2.27" height="8.79" transform="translate(-59.52 120.08) rotate(-40.56)"/><rect class="cls-1-white" x="129.79" y="138.42" width="2.27" height="14.44" transform="translate(-61.27 108.05) rotate(-36.98)"/><rect class="cls-1-white" x="124.43" y="141.57" width="2.27" height="8.79" transform="translate(-59.6 93.19) rotate(-33.39)"/><rect class="cls-1-white" x="120.61" y="143.92" width="2.27" height="8.79" transform="translate(-57.6 80.09) rotate(-29.79)"/><rect class="cls-1-white" x="116.66" y="146.02" width="2.27" height="8.79" transform="translate(-54.28 67.4) rotate(-26.18)"/><rect class="cls-1-white" x="112.58" y="147.87" width="2.27" height="8.79" transform="translate(-49.72 55.29) rotate(-22.56)"/><rect class="cls-1-white" x="109.31" y="149.3" width="2.27" height="14.44" transform="translate(-44.82 44.32) rotate(-18.94)"/><rect class="cls-1-white" x="104.11" y="150.77" width="2.27" height="8.79" transform="translate(-37.23 33.3) rotate(-15.31)"/><rect class="cls-1-white" x="99.76" y="151.82" width="2.27" height="8.79" transform="translate(-29.55 23.67) rotate(-11.69)"/><rect class="cls-1-white" x="95.34" y="152.58" width="2.27" height="8.79" transform="translate(-21.09 15.11) rotate(-8.07)"/><rect class="cls-1-white" x="90.89" y="153.08" width="2.27" height="8.79" transform="translate(-12.03 7.68) rotate(-4.49)"/><rect class="cls-1-white" x="86.46" y="153.28" width="2.27" height="14.44" transform="translate(-2.59 1.44) rotate(-0.93)"/><rect class="cls-1-white" x="78.68" y="156.48" width="8.79" height="2.27" transform="translate(-78.16 233.43) rotate(-87.39)"/><rect class="cls-1-white" x="74.21" y="156.14" width="8.79" height="2.27" transform="translate(-86.22 218.48) rotate(-83.82)"/><rect class="cls-1-white" x="69.77" y="155.51" width="8.79" height="2.27" transform="translate(-92.81 203.12) rotate(-80.22)"/><rect class="cls-1-white" x="65.38" y="154.61" width="8.79" height="2.27" transform="translate(-97.9 187.54) rotate(-76.6)"/><rect class="cls-1-white" x="57.41" y="156.14" width="14.44" height="2.27" transform="translate(-104.68 173.02) rotate(-72.97)"/><rect class="cls-1-white" x="56.83" y="151.99" width="8.79" height="2.27" transform="translate(-103.66 156.4) rotate(-69.34)"/><rect class="cls-1-white" x="52.69" y="150.28" width="8.79" height="2.27" transform="translate(-104.42 141.2) rotate(-65.72)"/><rect class="cls-1-white" x="48.66" y="148.31" width="8.79" height="2.27" transform="translate(-103.85 126.44) rotate(-62.11)"/><rect class="cls-1-white" x="44.77" y="146.09" width="8.79" height="2.27" transform="translate(-102.06 112.24) rotate(-58.5)"/><rect class="cls-1-white" x="36.58" y="145.95" width="14.44" height="2.27" transform="translate(-101.73 98.37) rotate(-54.91)"/><rect class="cls-1-white" x="37.45" y="140.95" width="8.79" height="2.27" transform="translate(-95.23 85.96) rotate(-51.33)"/><rect class="cls-1-white" x="34.03" y="138.04" width="8.79" height="2.27" transform="translate(-90.43 74.04) rotate(-47.75)"/><rect class="cls-1-white" x="30.82" y="134.92" width="8.79" height="2.27" transform="translate(-84.85 63) rotate(-44.17)"/><rect class="cls-1-white" x="27.79" y="131.61" width="8.79" height="2.27" transform="translate(-78.63 52.89) rotate(-40.59)"/><rect class="cls-1-white" x="19.91" y="129.82" width="14.44" height="2.27" transform="translate(-73.37 42.71) rotate(-37.01)"/><rect class="cls-1-white" x="22.4" y="124.46" width="8.79" height="2.27" transform="translate(-64.75 35.53) rotate(-33.42)"/><rect class="cls-1-white" x="20.05" y="120.65" width="8.79" height="2.27" transform="translate(-57.33 28.28) rotate(-29.82)"/><rect class="cls-1-white" x="17.95" y="116.69" width="8.79" height="2.27" transform="translate(-49.75 21.99) rotate(-26.21)"/><rect class="cls-1-white" x="16.1" y="112.61" width="8.79" height="2.27" transform="translate(-42.13 16.6) rotate(-22.59)"/><rect class="cls-1-white" x="9.01" y="109.35" width="14.44" height="2.27" transform="translate(-35.03 11.28) rotate(-18.97)"/><rect class="cls-1-white" x="13.19" y="104.15" width="8.79" height="2.27" transform="translate(-27.23 8.4) rotate(-15.34)"/><rect class="cls-1-white" x="12.14" y="99.8" width="8.79" height="2.27" transform="translate(-20.15 5.46) rotate(-11.72)"/><rect class="cls-1-white" x="11.37" y="95.38" width="8.79" height="2.27" transform="translate(-13.45 3.19) rotate(-8.11)"/><rect class="cls-1-white" x="10.88" y="90.93" width="8.79" height="2.27" transform="translate(-7.2 1.49) rotate(-4.52)"/><rect class="cls-1-white" x="5.02" y="86.5" width="14.44" height="2.27" transform="translate(-1.47 0.22) rotate(-0.96)"/></g><path class="cls-3-white" d="M144,74.48a59,59,0,0,0-3.43-11,59.85,59.85,0,0,0-5.52-10.13,59,59,0,0,0-7.38-8.87,57.92,57.92,0,0,0-9-7.26,58.88,58.88,0,0,0-55.28-5,59.25,59.25,0,0,0-19,12.9,57.92,57.92,0,0,0-7.26,9,58.91,58.91,0,0,0-8.48,44.26,59.08,59.08,0,0,0,8.95,21.15A59.59,59.59,0,0,0,45,128.29a57.92,57.92,0,0,0,9,7.26,58.9,58.9,0,0,0,74.28-7.85,57.92,57.92,0,0,0,7.26-9A58.9,58.9,0,0,0,144,74.48Zm-2.56,22.44a55.47,55.47,0,0,1-2.12,7.9l-1.71.13q-1.92.12-3.78.15c-.1.29-.23.56-.35.85l-.36.84-.36.84-.4.82-.4.82c-.14.28-.26.56-.41.82l-.88,1.61-.23.39-.24.39-.47.78-.48.78c-.16.26-.34.51-.51.76-.35.5-.68,1-1,1.51l-1.1,1.46-.28.36c-.09.12-.19.24-.29.35l-.59.7c-.39.47-.77.95-1.2,1.38L123,121.91l-1.31,1.28c-.22.21-.43.43-.66.63l-.68.61-.69.6c-.23.2-.45.41-.69.6l-1.44,1.14-.35.28-.38.27-.74.53-.75.54c-.12.08-.24.18-.37.26l-.39.25-1.54,1c-.25.17-.52.31-.79.46l-.79.46-.79.46-.82.41-1.63.83-1.67.75-.42.18-.21.1-.21.08-.85.33-.86.33-.42.16-.44.15-1.73.57-.22.07-.22.06-.44.13-.88.24-.88.24-.9.2-.89.2c-.3.07-.59.15-.89.19l-1.81.31-.45.08-.45.05-.91.12-.91.11-.91.07c-.61,0-1.21.1-1.82.13-.43,1.18-.88,2.35-1.37,3.53-.21.52-.44,1.05-.67,1.58a56.16,56.16,0,0,1-31.26-9.23,55.6,55.6,0,0,1-8.14-6.53c.62-1.74,1.32-3.45,2.06-5.1-.44-.43-.83-.89-1.24-1.35l-.6-.69-.31-.34-.28-.36-1.14-1.43c-.2-.23-.37-.48-.55-.73L44.8,116l-.54-.74-.13-.19-.12-.19-.25-.39-1-1.54c-.31-.52-.61-1.06-.92-1.58l-.45-.8-.41-.82a50.63,50.63,0,0,1-4.77-13.78l-.31-1.8,0-.22,0-.23-.05-.45-.11-.91-.12-.91-.06-.91-.07-.92c0-.3,0-.6,0-.91l-.05-1.83c0-.3,0-.61,0-.91l0-.92,0-.91.07-.92.06-.91c0-.3,0-.61.08-.91l.21-1.82c0-.3.08-.6.13-.9l.16-.91.15-.9c.05-.3.12-.6.19-.9l.19-.89.1-.45,0-.22.05-.22.48-1.77c0-.15.07-.3.12-.44l.14-.44.28-.87.27-.87c.1-.29.21-.58.32-.86l.32-.86.16-.43a3.69,3.69,0,0,1,.17-.42c-.89-.88-1.77-1.78-2.64-2.72-.38-.41-.77-.84-1.15-1.27a55,55,0,0,1,4.22-7.67A56.14,56.14,0,0,1,75,31.42a54.85,54.85,0,0,1,5.84-.88q.43.75.84,1.5c.6,1.12,1.17,2.24,1.72,3.37.3,0,.6,0,.91,0l.91,0,.92,0,.91,0,.92,0h.69l.22,0,1.83.13.46,0,.45.06.91.11.91.1.9.15.91.15.45.08a3.54,3.54,0,0,1,.45.08l1.79.39.44.1.44.11.89.24.88.24c.3.08.59.18.88.27.58.19,1.16.36,1.74.56l1.71.64.43.16.42.18.84.36.85.36c.28.12.55.27.82.4.55.27,1.1.52,1.65.8l1.6.88.4.22c.13.07.26.16.39.24l.78.47c.52.32,1.05.63,1.54,1l1.51,1,1.46,1.1a48.54,48.54,0,0,1,5.44,4.89l.64.65.6.69c.4.46.82.91,1.21,1.37.75,1,1.55,1.89,2.23,2.91l.54.74.26.37c.09.13.17.26.25.39l1,1.54.25.38.23.4.45.8c.3.53.62,1.05.88,1.6,1.8-.16,3.65-.27,5.5-.31.32.69.64,1.39.94,2.09a56,56,0,0,1,3.42,32.39Z"/><path class="cls-1-white" d="M171.09,69.52A86.47,86.47,0,0,0,119.43,6.57a85.11,85.11,0,0,0-16.21-4.91,86.35,86.35,0,0,0-33.7,0A85.32,85.32,0,0,0,53.31,6.57,86.51,86.51,0,0,0,6.57,53.31,85.32,85.32,0,0,0,1.66,69.52a86.35,86.35,0,0,0,0,33.7,85.11,85.11,0,0,0,4.91,16.21,86.29,86.29,0,0,0,63,51.66,86.86,86.86,0,0,0,33.7,0,86.32,86.32,0,0,0,67.87-67.87,86.86,86.86,0,0,0,0-33.7Zm-25.21,76.36a84.63,84.63,0,0,1-27.3,18.25,83.32,83.32,0,0,1-15,4.61c-1.38-1.09-2.73-2.24-4-3.37l-.71.12-.35.07-.36,0-1.43.18-1.42.18-.71.09-.72.06-2.86.22c-.48,0-1,0-1.44.06l-1.43,0-1.44,0H85.29l-2.87-.08c-1-.05-1.91-.14-2.86-.21l-1.43-.11-1.43-.18a79.28,79.28,0,0,1-22.1-6L52,158.73l-.33-.15-.32-.16-.64-.33-1.28-.65-1.27-.66-1.25-.71-1.24-.72c-.42-.24-.84-.47-1.23-.74L42,153.06c-.41-.24-.79-.53-1.19-.81l-1.17-.83-1.17-.83-1.13-.89-1.13-.89c-.37-.29-.76-.57-1.11-.9L32.94,146c-.18-.16-.37-.31-.54-.47l-.52-.5-1-1-1-1c-.34-.34-.66-.69-1-1l-1-1-.49-.52-.25-.26-.23-.27L25,137.78c-.16-.18-.32-.36-.47-.55l-.44-.56-.89-1.13-.89-1.13c-.29-.38-.56-.78-.84-1.16l-.83-1.17-.41-.59c-.14-.19-.28-.39-.41-.59-1.18-.11-2.37-.25-3.57-.4l-1.63-.22a83.9,83.9,0,0,1-2.14-84.11c.54-.11,1.07-.21,1.61-.3,1.19-.22,2.38-.41,3.55-.58.23-.42.5-.82.76-1.22l.77-1.21.78-1.21.82-1.17.84-1.17.41-.59.21-.29.22-.28,1.78-2.26c.15-.19.29-.38.45-.56l.47-.54.94-1.09L27,32.62c.32-.36.66-.7,1-1l1-1,.5-.52.25-.26L30,29.5l2.08-2,.52-.49.54-.47,1.09-.94,1.08-.94c.37-.31.75-.6,1.12-.9l1.13-.88.57-.45c.19-.15.37-.3.57-.43L41,20.36l.59-.42.6-.39,1.21-.77L44.62,18l.61-.37.63-.35c.83-.48,1.65-1,2.49-1.43l2.56-1.31.64-.32c.21-.11.43-.2.65-.3l1.31-.59c.87-.4,1.73-.81,2.63-1.14l2.67-1.06,2.72-.92A77.44,77.44,0,0,1,72.67,7.46l1.41-.25L75.5,7c1-.11,1.9-.25,2.85-.35l2.87-.22.71,0,.36,0h.36l1.44,0,1.43,0,.72,0c.24,0,.48,0,.72,0l2.87.08c.24,0,.48,0,.72,0l.72,0,1.43.11c1,.08,1.91.13,2.86.27,1.22-1.2,2.51-2.42,3.84-3.58q1.69.27,3.39.6a84.21,84.21,0,0,1,51.1,32.31c-.13.54-.26,1.07-.4,1.6-.31,1.18-.63,2.33-1,3.47.28.38.53.79.79,1.2l.77,1.21.78,1.2.72,1.25.71,1.24c.24.42.49.83.7,1.26l1.31,2.55c.1.22.22.43.32.64l.3.66.59,1.31.59,1.3c.19.44.35.89.53,1.34l.53,1.33.26.67c.09.22.18.44.26.67l.92,2.72.23.68c.07.23.13.46.2.69l.39,1.38c.25.92.54,1.84.74,2.77l.64,2.8c.19.94.34,1.88.51,2.83.08.47.18.94.25,1.41l.18,1.43.18,1.42c.06.48.14,1,.16,1.43l.22,2.86.05.72c0,.24,0,.48,0,.71l0,1.44,0,1.44c0,.24,0,.48,0,.72l0,.71-.07,2.88c0,.48-.06,1-.09,1.43l-.11,1.43-.11,1.43c0,.48-.11.95-.17,1.43l-.36,2.85-.51,2.82-.12.71-.07.35-.08.35-.32,1.4-.32,1.4-.17.7-.19.69-.79,2.76-.09.35-.12.34-.23.68-.46,1.36-.46,1.36-.53,1.33-.52,1.34-.26.67-.14.33-.15.33-1.18,2.61c-.1.22-.19.44-.3.65l-.33.64-.65,1.28-.65,1.28c-.23.42-.48.83-.71,1.25l-.72,1.24-.36.62c-.12.21-.23.42-.36.62.39,1.12.76,2.25,1.13,3.41l.48,1.58A85.06,85.06,0,0,1,145.88,145.88Z"/></svg>